<svg width="34" height="35" viewBox="0 0 34 35" fill="none" xmlns="http://www.w3.org/2000/svg">
<path d="M22.4389 15.197V18.9652H14.7367C15.134 20.272 15.5134 21.5228 15.8962 22.7834C16.0887 22.7834 16.25 22.7834 16.4125 22.7834C20.4539 22.7834 24.4952 22.7761 28.5366 22.7858C31.0747 22.7919 33.19 24.7375 33.6507 27.4557C34.2371 30.9185 31.8169 34.149 28.5878 34.1684C24.75 34.1903 20.9123 34.1745 17.0734 34.1745C14.0624 34.1745 11.0514 34.1745 8.04151 34.1745C6.7808 34.1745 6.24559 33.7243 5.93959 32.3871C4.01126 23.9551 2.07958 15.5255 0.160147 7.09102C-0.519722 4.10635 1.02361 1.13384 3.67967 0.251701C6.35686 -0.637739 9.17871 0.895359 10.1034 3.82041C11.2484 7.44266 12.3388 11.0856 13.4315 14.7273C13.5483 15.1154 13.7097 15.2091 14.0613 15.2067C16.6784 15.1909 19.2966 15.1982 21.9137 15.1982H22.4389V15.197Z" fill="white"/>
</svg>
